<?xml version="1.0" encoding="iso-8859-1"?>
<!-- Generator: Adobe Illustrator 16.0.0, SVG Export Plug-In . SVG Version: 6.00 Build 0)  -->
<!DOCTYPE svg PUBLIC "-//W3C//DTD SVG 1.1//EN" "http://www.w3.org/Graphics/SVG/1.1/DTD/svg11.dtd">
<svg version="1.1" id="Layer_5" xmlns="http://www.w3.org/2000/svg" xmlns:xlink="http://www.w3.org/1999/xlink" x="0px" y="0px"
	 width="89.667px" height="81.333px" viewBox="540.538 335.167 89.667 81.333"
	 style="enable-background:new 540.538 335.167 89.667 81.333;" xml:space="preserve">
<style type="text/css">
<![CDATA[
	.st0{fill:#FFFFFF;stroke:#FFFFFF;stroke-width:0.9;stroke-miterlimit:10;}
]]>
</style>
<g>
	<g>
		<path class="st0" d="M586.63,349.783c0.154,3.413,0.747,16.136,0.763,16.656c0.775,9.961,3.659,20.648,14.597,20.747
			c10.665,0.097,15.189-9.208,17.112-16.414c1.214-4.479,1.989-8.344,1.989-8.344l-7.526,39.843c0,0-1.008,6.87-6.812,6.958
			c0,0-16.899,0.497-17.564-0.158c-0.637-0.645-1.587-5.419-2.331-5.428c-0.741-0.003-1.654,4.652-2.403,5.384
			c-0.778,0.741-18.01-0.162-18.01-0.162c-5.926-0.054-6.832-6.93-6.832-6.93l-7.451-40.13c0,0,0.71,3.875,1.832,8.374
			c1.797,7.241,6.177,16.629,16.82,16.724c10.959,0.101,14.009-10.536,14.968-20.481c0.05-0.519,0.599-13.196,0.767-16.63"/>
		<g>
			<path class="st0" d="M554.539,358.814c-0.016,1.735-1.418,3.113-3.151,3.097c-1.713-0.015-3.09-1.417-3.073-3.156
				c0.014-1.712,1.418-3.114,3.13-3.097C553.179,355.673,554.555,357.099,554.539,358.814z"/>
			<path class="st0" d="M624.881,359.398c-0.014,1.738-1.414,3.113-3.152,3.099c-1.714-0.017-3.088-1.418-3.072-3.155
				c0.016-1.712,1.414-3.113,3.128-3.097C623.522,356.26,624.896,357.687,624.881,359.398z"/>
			<path class="st0" d="M590.843,345.61c-0.022,2.329-1.925,4.199-4.251,4.176l0,0c-2.329-0.02-4.201-1.925-4.181-4.253l0,0
				c0.023-2.329,1.927-4.196,4.254-4.176l0,0C588.992,341.379,590.863,343.284,590.843,345.61L590.843,345.61z"/>
		</g>
	</g>
</g>
</svg>
