<?xml version="1.0" encoding="iso-8859-1"?>
<!-- Generator: Adobe Illustrator 16.0.0, SVG Export Plug-In . SVG Version: 6.00 Build 0)  -->
<!DOCTYPE svg PUBLIC "-//W3C//DTD SVG 1.1//EN" "http://www.w3.org/Graphics/SVG/1.1/DTD/svg11.dtd">
<svg version="1.1" id="Layer_1" xmlns="http://www.w3.org/2000/svg" xmlns:xlink="http://www.w3.org/1999/xlink" x="0px" y="0px"
	 width="250px" height="221.787px" viewBox="0 0 250 221.787" style="enable-background:new 0 0 250 221.787;" xml:space="preserve"
	>
<g>
	<path style="fill:none;stroke:#FFFFFF;stroke-width:4;stroke-miterlimit:10;" d="M124.924,30.222
		c0.585,10.727,2.809,50.695,2.875,52.333c2.729,31.282,12.083,64.791,46.467,64.791c33.523,0,47.479-29.378,53.316-52.077
		c3.676-14.113,6.006-26.276,6.006-26.276l-22.52,125.445c0,0-2.974,21.611-21.208,22.062c0,0-53.099,2.041-55.205,0
		c-2.023-2.009-5.146-16.987-7.479-16.987c-2.337,0-5.073,14.662-7.406,16.987c-2.42,2.355-56.609,0-56.609,0
		c-18.628,0-21.671-21.591-21.671-21.591L16.935,68.993c0,0,2.339,12.164,5.996,26.276c5.85,22.699,19.887,52.077,53.34,52.077
		c34.45,0,43.725-33.509,46.461-64.791c0.142-1.636,1.509-41.504,1.938-52.294"/>
	<g>
		<path style="fill:none;stroke:#FFFFFF;stroke-width:4;stroke-miterlimit:10;" d="M24.319,59.519c0,5.461-4.367,9.829-9.819,9.829
			c-5.383,0-9.75-4.368-9.75-9.829c0-5.382,4.367-9.828,9.75-9.828C19.952,49.691,24.319,54.137,24.319,59.519z"/>
		<path style="fill:none;stroke:#FFFFFF;stroke-width:4;stroke-miterlimit:10;" d="M245.419,59.358c0,5.46-4.356,9.827-9.816,9.827
			c-5.395,0-9.751-4.367-9.751-9.827c0-5.382,4.356-9.825,9.751-9.825C241.062,49.533,245.419,53.976,245.419,59.358z"/>
		<path style="fill:none;stroke:#FFFFFF;stroke-width:4;stroke-miterlimit:10;" d="M138.046,16.989c0,7.321-5.936,13.25-13.25,13.25
			l0,0c-7.319,0-13.249-5.929-13.249-13.25l0,0c0-7.314,5.93-13.248,13.249-13.248l0,0C132.11,3.741,138.046,9.674,138.046,16.989
			L138.046,16.989z"/>
	</g>
</g>
</svg>
